<svg viewBox="0 0 1024 1024" version="1.1" xmlns="http://www.w3.org/2000/svg" p-id="4992" width="32" height="32"><path d="M532.48 645.12a10.24 10.24 0 0 1 1.19808 20.40832L532.48 665.6H245.76a10.24 10.24 0 0 1-1.19808-20.40832L245.76 645.12h286.72z m253.5424-262.656a10.24 10.24 0 0 1-0.2048 13.53728l-0.9216 0.89088-134.28736 115.0464 134.2976 115.16928a10.24 10.24 0 0 1 1.88416 13.4144l-0.77824 1.024a10.24 10.24 0 0 1-13.4144 1.88416l-1.024-0.77824-143.36-122.94144a10.24 10.24 0 0 1-0.89088-14.6944l0.89088-0.84992 143.36-122.81856a10.24 10.24 0 0 1 14.4384 1.10592zM532.48 501.76a10.24 10.24 0 0 1 1.19808 20.40832L532.48 522.24H245.76a10.24 10.24 0 0 1-1.19808-20.40832L245.76 501.76h286.72z m0-143.36a10.24 10.24 0 0 1 1.19808 20.40832L532.48 378.88H245.76a10.24 10.24 0 0 1-1.19808-20.40832L245.76 358.4h286.72z" p-id="4993"></path></svg>