<svg viewBox="0 0 1024 1024" version="1.1" xmlns="http://www.w3.org/2000/svg" width="32" height="32"><path d="M778.24 645.12a10.24 10.24 0 0 1 1.19808 20.40832L778.24 665.6H491.52a10.24 10.24 0 0 1-1.19808-20.40832L491.52 645.12h286.72zM251.392 380.5696l1.024 0.77824 143.36 122.81856a10.24 10.24 0 0 1 0.90112 14.68416l-0.89088 0.86016-143.36 122.94144a10.24 10.24 0 0 1-14.25408-14.6432l0.9216-0.90112 134.28736-115.16928-134.28736-115.0464a10.24 10.24 0 0 1-1.88416-13.4144l0.77824-1.024a10.24 10.24 0 0 1 13.4144-1.88416zM778.24 501.76a10.24 10.24 0 0 1 1.19808 20.40832L778.24 522.24H491.52a10.24 10.24 0 0 1-1.19808-20.40832L491.52 501.76h286.72z m0-143.36a10.24 10.24 0 0 1 1.19808 20.40832L778.24 378.88H491.52a10.24 10.24 0 0 1-1.19808-20.40832L491.52 358.4h286.72z"></path></svg>