<svg viewBox="0 0 1024 1024" version="1.1" xmlns="http://www.w3.org/2000/svg" p-id="16888" width="32" height="32"><path d="M790.3232 436.3264h-53.248v-57.6512c0-124.5184-101.888-226.4064-226.4064-226.4064s-226.4064 101.888-226.4064 226.4064l-0.512 57.6512h-50.176c-22.528 0-40.96 18.432-40.96 40.96v353.4848c0 22.528 18.432 40.96 40.96 40.96h556.6464c22.528 0 40.96-18.432 40.96-40.96V477.2864c0.1024-22.528-18.3296-40.96-40.8576-40.96z m-465.1008-57.7536c0-101.9904 83.456-185.4464 185.4464-185.4464s185.4464 83.456 185.4464 185.4464v57.7536H324.7104l0.512-57.7536z m465.1008 431.8208c0 11.264-9.216 20.48-20.48 20.48H254.1568c-11.264 0-20.48-9.216-20.48-20.48V497.5616c0-11.264 9.216-20.48 20.48-20.48h515.6864c11.264 0 20.48 9.216 20.48 20.48v312.832z" p-id="16889"></path><path d="M512 581.2224c-11.264 0-20.48 9.216-20.48 20.48v104.5504c0 11.264 9.216 20.48 20.48 20.48s20.48-9.216 20.48-20.48V601.7024c0-11.264-9.216-20.48-20.48-20.48z" p-id="16890"></path></svg>