<svg viewBox="0 0 1024 1024" version="1.1" xmlns="http://www.w3.org/2000/svg" p-id="20364" width="32" height="32"><path d="M512 726.8352c-11.264 0-20.48-9.216-20.48-20.48V601.7024c0-11.264 9.216-20.48 20.48-20.48s20.48 9.216 20.48 20.48v104.5504c0 11.3664-9.216 20.5824-20.48 20.5824z" p-id="20365"></path><path d="M790.3232 436.3264H324.7104l0.512-57.7536c0-101.9904 83.456-185.4464 185.4464-185.4464 82.432 0 152.7808 54.5792 176.7424 129.3312 3.6864 11.3664 16.384 17.2032 27.4432 12.4928 9.728-4.096 14.7456-14.9504 11.5712-24.9856-29.2864-91.2384-115.0976-157.696-215.6544-157.696-124.5184 0-226.4064 101.888-226.4064 226.4064l-0.512 57.6512h-50.176c-22.528 0-40.96 18.432-40.96 40.96v353.4848c0 22.528 18.432 40.96 40.96 40.96h556.6464c22.528 0 40.96-18.432 40.96-40.96V477.2864c0-22.528-18.432-40.96-40.96-40.96z m0 374.0672c0 11.264-9.216 20.48-20.48 20.48H254.1568c-11.264 0-20.48-9.216-20.48-20.48V497.5616c0-11.264 9.216-20.48 20.48-20.48h515.6864c11.264 0 20.48 9.216 20.48 20.48v312.832z" p-id="20366"></path></svg>